# xmcd
#
# Track frame offsets: 
#        150
#        1568
#        18622
#        42564
#        71964
#        103551
#        131813
#        165971
#        180822
#        197320
#        218536
#        234896
#        249162
#        267911
#        285761
#        317289
#        339939
#
# Disc length: 4715 seconds
#
# Revision: 0
# Processed by: cddbd v1.5.2PL0 Copyright (c) Steve Scherf et al.
# Submitted via: ExactAudioCopy v0.99pb5
#
DISCID=c9126911
DTITLE=David Bowie  - Conversation Piece (Disc02)
DYEAR=1900
DGENRE=
TTITLE0=Band Intro
TTITLE1=Here Today, Gone Tomorrow
TTITLE2=Time
TTITLE3=It's Gonna Be Me
TTITLE4=John, I'm Only Dancing Again
TTITLE5=Word On A Wing
TTITLE6=Stay
TTITLE7=Some Are
TTITLE8=All Saints
TTITLE9=Sound and Vision
TTITLE10=Abdulmajid
TTITLE11=Joe The Lion
TTITLE12=Alabama Song
TTITLE13=I Pray, Ole
TTITLE14=Look Back In Anger
TTITLE15=Space Oddity
TTITLE16=Panic In Detroit
EXTD=
EXTT0=
EXTT1=
EXTT2=
EXTT3=
EXTT4=
EXTT5=
EXTT6=
EXTT7=
EXTT8=
EXTT9=
EXTT10=
EXTT11=
EXTT12=
EXTT13=
EXTT14=
EXTT15=
EXTT16=
PLAYORDER=
